<svg xmlns="http://www.w3.org/2000/svg" xmlns:xlink="http://www.w3.org/1999/xlink" width="3000" zoomAndPan="magnify" viewBox="0 0 2250 2250.000011" height="3000" preserveAspectRatio="xMidYMid meet" version="1.0"><defs><clipPath id="e61ae816e5"><path d="M 0.5 0 L 2249.5 0 L 2249.5 2249 L 0.5 2249 Z M 0.5 0 " clip-rule="nonzero"/></clipPath><clipPath id="46e3387866"><path d="M 0.5 0 L 2249.5 0 L 2249.5 2249 L 0.5 2249 Z M 0.5 0 " clip-rule="nonzero"/></clipPath><clipPath id="032aaf1eb4"><path d="M 1125 0 C 503.957031 0 0.5 503.457031 0.5 1124.5 C 0.5 1745.542969 503.957031 2249 1125 2249 C 1746.042969 2249 2249.5 1745.542969 2249.5 1124.5 C 2249.5 503.457031 1746.042969 0 1125 0 Z M 1125 0 " clip-rule="nonzero"/></clipPath><clipPath id="5b4713dd91"><path d="M 877.015625 763.136719 L 1376.378906 763.136719 L 1376.378906 1480 L 877.015625 1480 Z M 877.015625 763.136719 " clip-rule="nonzero"/></clipPath><clipPath id="8b2e9f1a2f"><path d="M 724.257812 408 L 1530.925781 408 L 1530.925781 617 L 724.257812 617 Z M 724.257812 408 " clip-rule="nonzero"/></clipPath><clipPath id="4862350d16"><path d="M 724.257812 581 L 1530.925781 581 L 1530.925781 1608 L 724.257812 1608 Z M 724.257812 581 " clip-rule="nonzero"/></clipPath><clipPath id="d09dd83b61"><path d="M 724.257812 1572 L 1530.925781 1572 L 1530.925781 1847 L 724.257812 1847 Z M 724.257812 1572 " clip-rule="nonzero"/></clipPath></defs><g clip-path="url(#e61ae816e5)"><path fill="#ffffff" d="M 0.5 0 L 2249.5 0 L 2249.5 2249 L 0.5 2249 Z M 0.5 0 " fill-opacity="1" fill-rule="nonzero"/><path fill="#ffffff" d="M 0.5 0 L 2249.5 0 L 2249.5 2249 L 0.5 2249 Z M 0.5 0 " fill-opacity="1" fill-rule="nonzero"/></g><g clip-path="url(#46e3387866)"><g clip-path="url(#032aaf1eb4)"><path fill="#a1c2e4" d="M 0.5 0 L 2249.5 0 L 2249.5 2249 L 0.5 2249 Z M 0.5 0 " fill-opacity="1" fill-rule="nonzero"/></g></g><g clip-path="url(#5b4713dd91)"><path fill="#040404" d="M 1126.703125 763.484375 C 1264.597656 763.484375 1376.390625 875.574219 1376.390625 1013.84375 C 1376.390625 1061.953125 1362.847656 1106.878906 1339.386719 1145.03125 C 1311.25 1191.769531 1283.105469 1238.511719 1254.96875 1285.253906 C 1220.695312 1341.109375 1192.964844 1386.3125 1158.699219 1442.167969 C 1128.488281 1491.417969 1126.445312 1492.628906 1096.074219 1443.125 C 1061.976562 1387.546875 1033.308594 1340.828125 999.214844 1285.253906 C 971.140625 1239.035156 943.070312 1192.820312 914.996094 1146.609375 C 890.941406 1108.121094 877.015625 1062.617188 877.015625 1013.84375 C 877.015625 875.574219 988.804688 763.484375 1126.703125 763.484375 Z M 1126.703125 889.003906 C 1188.523438 889.003906 1238.640625 939.253906 1238.640625 1001.238281 C 1238.640625 1063.226562 1188.523438 1113.472656 1126.703125 1113.472656 C 1064.878906 1113.472656 1014.765625 1063.222656 1014.765625 1001.238281 C 1014.765625 939.253906 1064.882812 889.003906 1126.703125 889.003906 Z M 1126.703125 889.003906 " fill-opacity="1" fill-rule="evenodd"/></g><g clip-path="url(#8b2e9f1a2f)"><path fill="#000000" d="M 1530.835938 616.371094 L 724.207031 616.371094 L 724.207031 527.359375 C 724.207031 525.417969 724.257812 523.480469 724.355469 521.539062 C 724.453125 519.601562 724.597656 517.667969 724.789062 515.738281 C 724.984375 513.808594 725.222656 511.882812 725.511719 509.964844 C 725.796875 508.042969 726.132812 506.132812 726.511719 504.230469 C 726.894531 502.328125 727.320312 500.4375 727.792969 498.554688 C 728.269531 496.671875 728.789062 494.804688 729.355469 492.949219 C 729.921875 491.089844 730.53125 489.25 731.1875 487.421875 C 731.84375 485.597656 732.546875 483.789062 733.289062 481.996094 C 734.035156 480.203125 734.824219 478.429688 735.65625 476.675781 C 736.488281 474.921875 737.363281 473.191406 738.28125 471.480469 C 739.199219 469.769531 740.15625 468.082031 741.160156 466.417969 C 742.160156 464.753906 743.199219 463.117188 744.28125 461.503906 C 745.359375 459.890625 746.480469 458.304688 747.640625 456.746094 C 748.796875 455.1875 749.996094 453.660156 751.230469 452.160156 C 752.464844 450.660156 753.734375 449.191406 755.039062 447.753906 C 756.34375 446.316406 757.6875 444.910156 759.0625 443.539062 C 760.4375 442.167969 761.84375 440.832031 763.285156 439.527344 C 764.726562 438.222656 766.199219 436.957031 767.703125 435.726562 C 769.203125 434.496094 770.738281 433.300781 772.296875 432.144531 C 773.859375 430.988281 775.449219 429.871094 777.066406 428.792969 C 778.683594 427.714844 780.324219 426.675781 781.992188 425.679688 C 783.660156 424.679688 785.351562 423.722656 787.066406 422.808594 C 788.78125 421.894531 790.519531 421.019531 792.277344 420.191406 C 794.035156 419.359375 795.808594 418.574219 797.605469 417.828125 C 799.402344 417.085938 801.214844 416.386719 803.046875 415.730469 C 804.878906 415.078125 806.722656 414.46875 808.585938 413.902344 C 810.445312 413.339844 812.316406 412.820312 814.203125 412.347656 C 816.089844 411.875 817.988281 411.445312 819.894531 411.066406 C 821.800781 410.6875 823.714844 410.355469 825.640625 410.066406 C 827.5625 409.78125 829.492188 409.542969 831.429688 409.347656 C 833.363281 409.15625 835.300781 409.011719 837.246094 408.914062 C 839.1875 408.816406 841.128906 408.769531 843.074219 408.765625 L 1411.96875 408.765625 C 1413.914062 408.769531 1415.855469 408.816406 1417.800781 408.914062 C 1419.742188 409.011719 1421.679688 409.15625 1423.617188 409.347656 C 1425.550781 409.542969 1427.480469 409.78125 1429.402344 410.066406 C 1431.328125 410.355469 1433.242188 410.6875 1435.148438 411.066406 C 1437.054688 411.445312 1438.953125 411.875 1440.839844 412.347656 C 1442.726562 412.820312 1444.597656 413.339844 1446.460938 413.902344 C 1448.320312 414.46875 1450.164062 415.078125 1451.996094 415.730469 C 1453.828125 416.386719 1455.640625 417.085938 1457.4375 417.828125 C 1459.234375 418.574219 1461.011719 419.359375 1462.769531 420.191406 C 1464.523438 421.019531 1466.261719 421.894531 1467.976562 422.808594 C 1469.691406 423.722656 1471.382812 424.679688 1473.050781 425.679688 C 1474.71875 426.675781 1476.359375 427.714844 1477.976562 428.792969 C 1479.59375 429.871094 1481.183594 430.988281 1482.746094 432.144531 C 1484.304688 433.300781 1485.839844 434.496094 1487.339844 435.726562 C 1488.84375 436.957031 1490.316406 438.222656 1491.757812 439.527344 C 1493.199219 440.832031 1494.605469 442.167969 1495.980469 443.539062 C 1497.355469 444.914062 1498.699219 446.316406 1500.003906 447.753906 C 1501.308594 449.191406 1502.578125 450.660156 1503.8125 452.160156 C 1505.046875 453.660156 1506.246094 455.1875 1507.402344 456.746094 C 1508.5625 458.304688 1509.683594 459.890625 1510.761719 461.503906 C 1511.84375 463.117188 1512.882812 464.753906 1513.886719 466.417969 C 1514.886719 468.082031 1515.84375 469.769531 1516.761719 471.480469 C 1517.679688 473.191406 1518.554688 474.921875 1519.386719 476.675781 C 1520.21875 478.429688 1521.007812 480.203125 1521.753906 481.996094 C 1522.5 483.789062 1523.199219 485.597656 1523.855469 487.421875 C 1524.511719 489.25 1525.121094 491.089844 1525.6875 492.949219 C 1526.253906 494.804688 1526.773438 496.671875 1527.25 498.554688 C 1527.722656 500.4375 1528.148438 502.328125 1528.53125 504.230469 C 1528.914062 506.132812 1529.246094 508.042969 1529.535156 509.964844 C 1529.820312 511.882812 1530.058594 513.808594 1530.253906 515.738281 C 1530.445312 517.667969 1530.589844 519.601562 1530.6875 521.539062 C 1530.785156 523.480469 1530.835938 525.417969 1530.835938 527.359375 Z M 759.261719 581.398438 L 1495.78125 581.398438 L 1495.78125 527.359375 C 1495.78125 525.988281 1495.746094 524.621094 1495.675781 523.257812 C 1495.609375 521.890625 1495.507812 520.527344 1495.371094 519.164062 C 1495.234375 517.804688 1495.066406 516.445312 1494.863281 515.09375 C 1494.660156 513.738281 1494.425781 512.394531 1494.15625 511.050781 C 1493.886719 509.710938 1493.585938 508.375 1493.253906 507.046875 C 1492.917969 505.722656 1492.550781 504.402344 1492.152344 503.09375 C 1491.753906 501.785156 1491.324219 500.488281 1490.859375 499.199219 C 1490.398438 497.914062 1489.902344 496.636719 1489.378906 495.371094 C 1488.851562 494.109375 1488.296875 492.859375 1487.710938 491.621094 C 1487.121094 490.386719 1486.503906 489.164062 1485.859375 487.957031 C 1485.210938 486.753906 1484.535156 485.5625 1483.828125 484.390625 C 1483.125 483.214844 1482.390625 482.0625 1481.628906 480.925781 C 1480.867188 479.785156 1480.078125 478.667969 1479.257812 477.570312 C 1478.441406 476.472656 1477.597656 475.394531 1476.730469 474.335938 C 1475.859375 473.277344 1474.964844 472.242188 1474.042969 471.230469 C 1473.121094 470.214844 1472.175781 469.226562 1471.207031 468.257812 C 1470.238281 467.289062 1469.242188 466.347656 1468.226562 465.429688 C 1467.210938 464.511719 1466.175781 463.617188 1465.113281 462.75 C 1464.054688 461.878906 1462.972656 461.039062 1461.871094 460.222656 C 1460.769531 459.410156 1459.652344 458.621094 1458.511719 457.859375 C 1457.371094 457.101562 1456.210938 456.367188 1455.035156 455.664062 C 1453.859375 454.960938 1452.667969 454.285156 1451.460938 453.640625 C 1450.25 452.996094 1449.027344 452.378906 1447.785156 451.792969 C 1446.546875 451.207031 1445.292969 450.652344 1444.027344 450.128906 C 1442.761719 449.605469 1441.484375 449.113281 1440.191406 448.648438 C 1438.902344 448.1875 1437.597656 447.757812 1436.289062 447.359375 C 1434.976562 446.960938 1433.65625 446.597656 1432.324219 446.261719 C 1430.996094 445.929688 1429.65625 445.628906 1428.3125 445.359375 C 1426.96875 445.09375 1425.617188 444.859375 1424.261719 444.65625 C 1422.90625 444.453125 1421.542969 444.285156 1420.179688 444.148438 C 1418.816406 444.015625 1417.449219 443.914062 1416.078125 443.84375 C 1414.710938 443.777344 1413.339844 443.742188 1411.96875 443.738281 L 843.074219 443.738281 C 841.703125 443.742188 840.332031 443.777344 838.964844 443.84375 C 837.59375 443.914062 836.226562 444.015625 834.863281 444.148438 C 833.496094 444.285156 832.136719 444.453125 830.78125 444.65625 C 829.425781 444.859375 828.074219 445.09375 826.730469 445.359375 C 825.386719 445.628906 824.046875 445.929688 822.71875 446.261719 C 821.386719 446.597656 820.066406 446.960938 818.753906 447.359375 C 817.441406 447.757812 816.140625 448.1875 814.851562 448.648438 C 813.558594 449.113281 812.28125 449.605469 811.015625 450.128906 C 809.75 450.652344 808.496094 451.207031 807.257812 451.792969 C 806.015625 452.378906 804.792969 452.996094 803.582031 453.640625 C 802.375 454.285156 801.183594 454.960938 800.007812 455.664062 C 798.832031 456.367188 797.671875 457.101562 796.53125 457.859375 C 795.390625 458.621094 794.273438 459.410156 793.171875 460.222656 C 792.070312 461.039062 790.988281 461.878906 789.929688 462.75 C 788.871094 463.617188 787.832031 464.511719 786.816406 465.429688 C 785.800781 466.347656 784.804688 467.289062 783.835938 468.257812 C 782.867188 469.226562 781.921875 470.214844 781 471.230469 C 780.078125 472.242188 779.183594 473.277344 778.3125 474.335938 C 777.445312 475.394531 776.601562 476.472656 775.785156 477.570312 C 774.964844 478.667969 774.175781 479.785156 773.414062 480.925781 C 772.652344 482.0625 771.917969 483.214844 771.214844 484.390625 C 770.507812 485.5625 769.832031 486.753906 769.183594 487.957031 C 768.539062 489.164062 767.921875 490.386719 767.335938 491.621094 C 766.746094 492.859375 766.191406 494.109375 765.664062 495.371094 C 765.140625 496.636719 764.644531 497.914062 764.183594 499.199219 C 763.71875 500.488281 763.289062 501.785156 762.890625 503.09375 C 762.492188 504.402344 762.125 505.722656 761.789062 507.046875 C 761.457031 508.375 761.15625 509.710938 760.886719 511.050781 C 760.617188 512.394531 760.382812 513.738281 760.179688 515.09375 C 759.976562 516.445312 759.808594 517.804688 759.671875 519.164062 C 759.535156 520.527344 759.433594 521.890625 759.367188 523.257812 C 759.296875 524.621094 759.261719 525.988281 759.261719 527.359375 Z M 759.261719 581.398438 " fill-opacity="1" fill-rule="nonzero"/></g><g clip-path="url(#4862350d16)"><path fill="#000000" d="M 1530.835938 1607.9375 L 724.207031 1607.9375 L 724.207031 581.398438 L 1530.835938 581.398438 Z M 759.261719 1572.964844 L 1495.78125 1572.964844 L 1495.78125 616.371094 L 759.261719 616.371094 Z M 759.261719 1572.964844 " fill-opacity="1" fill-rule="nonzero"/></g><g clip-path="url(#d09dd83b61)"><path fill="#000000" d="M 1411.96875 1846.292969 L 843.074219 1846.292969 C 841.128906 1846.292969 839.1875 1846.242188 837.246094 1846.144531 C 835.300781 1846.046875 833.363281 1845.902344 831.429688 1845.710938 C 829.492188 1845.519531 827.5625 1845.28125 825.640625 1844.992188 C 823.714844 1844.707031 821.800781 1844.375 819.894531 1843.992188 C 817.988281 1843.613281 816.089844 1843.1875 814.203125 1842.714844 C 812.316406 1842.242188 810.445312 1841.722656 808.585938 1841.15625 C 806.722656 1840.59375 804.878906 1839.984375 803.046875 1839.328125 C 801.214844 1838.675781 799.402344 1837.976562 797.605469 1837.230469 C 795.808594 1836.488281 794.035156 1835.703125 792.277344 1834.871094 C 790.519531 1834.039062 788.78125 1833.167969 787.066406 1832.253906 C 785.351562 1831.335938 783.660156 1830.378906 781.992188 1829.382812 C 780.324219 1828.382812 778.683594 1827.34375 777.066406 1826.265625 C 775.449219 1825.1875 773.859375 1824.070312 772.300781 1822.914062 C 770.738281 1821.757812 769.203125 1820.566406 767.703125 1819.335938 C 766.199219 1818.105469 764.726562 1816.835938 763.285156 1815.535156 C 761.84375 1814.230469 760.4375 1812.894531 759.0625 1811.519531 C 757.6875 1810.148438 756.34375 1808.746094 755.039062 1807.308594 C 753.734375 1805.867188 752.464844 1804.402344 751.230469 1802.902344 C 749.996094 1801.402344 748.796875 1799.871094 747.640625 1798.3125 C 746.480469 1796.753906 745.359375 1795.171875 744.28125 1793.558594 C 743.199219 1791.945312 742.160156 1790.304688 741.160156 1788.640625 C 740.15625 1786.976562 739.199219 1785.289062 738.28125 1783.582031 C 737.363281 1781.871094 736.488281 1780.136719 735.65625 1778.382812 C 734.824219 1776.628906 734.035156 1774.855469 733.289062 1773.066406 C 732.546875 1771.273438 731.84375 1769.464844 731.1875 1767.636719 C 730.53125 1765.8125 729.921875 1763.96875 729.355469 1762.113281 C 728.789062 1760.257812 728.269531 1758.386719 727.792969 1756.507812 C 727.320312 1754.625 726.894531 1752.730469 726.511719 1750.828125 C 726.132812 1748.925781 725.796875 1747.015625 725.511719 1745.097656 C 725.222656 1743.179688 724.984375 1741.253906 724.789062 1739.324219 C 724.597656 1737.390625 724.453125 1735.457031 724.355469 1733.519531 C 724.257812 1731.582031 724.207031 1729.644531 724.207031 1727.703125 L 724.207031 1572.964844 L 1530.835938 1572.964844 L 1530.835938 1727.703125 C 1530.835938 1729.644531 1530.785156 1731.582031 1530.6875 1733.519531 C 1530.589844 1735.457031 1530.445312 1737.390625 1530.253906 1739.324219 C 1530.058594 1741.253906 1529.820312 1743.179688 1529.53125 1745.097656 C 1529.246094 1747.015625 1528.910156 1748.925781 1528.53125 1750.828125 C 1528.148438 1752.734375 1527.722656 1754.625 1527.25 1756.507812 C 1526.773438 1758.386719 1526.253906 1760.257812 1525.6875 1762.113281 C 1525.121094 1763.96875 1524.511719 1765.8125 1523.855469 1767.636719 C 1523.199219 1769.464844 1522.5 1771.273438 1521.753906 1773.066406 C 1521.007812 1774.859375 1520.21875 1776.628906 1519.386719 1778.382812 C 1518.554688 1780.136719 1517.679688 1781.871094 1516.761719 1783.582031 C 1515.84375 1785.292969 1514.886719 1786.980469 1513.886719 1788.640625 C 1512.882812 1790.304688 1511.84375 1791.945312 1510.761719 1793.558594 C 1509.683594 1795.171875 1508.5625 1796.757812 1507.402344 1798.3125 C 1506.246094 1799.871094 1505.046875 1801.402344 1503.8125 1802.902344 C 1502.578125 1804.402344 1501.308594 1805.871094 1500.003906 1807.308594 C 1498.699219 1808.746094 1497.355469 1810.148438 1495.980469 1811.519531 C 1494.605469 1812.894531 1493.199219 1814.230469 1491.757812 1815.535156 C 1490.316406 1816.835938 1488.84375 1818.105469 1487.339844 1819.335938 C 1485.839844 1820.566406 1484.304688 1821.757812 1482.742188 1822.914062 C 1481.183594 1824.070312 1479.59375 1825.1875 1477.976562 1826.265625 C 1476.359375 1827.34375 1474.71875 1828.382812 1473.050781 1829.382812 C 1471.382812 1830.378906 1469.691406 1831.335938 1467.976562 1832.253906 C 1466.261719 1833.167969 1464.523438 1834.039062 1462.769531 1834.871094 C 1461.011719 1835.703125 1459.234375 1836.488281 1457.4375 1837.230469 C 1455.640625 1837.976562 1453.828125 1838.675781 1451.996094 1839.328125 C 1450.164062 1839.984375 1448.320312 1840.59375 1446.460938 1841.160156 C 1444.597656 1841.722656 1442.726562 1842.242188 1440.839844 1842.714844 C 1438.953125 1843.1875 1437.054688 1843.613281 1435.148438 1843.992188 C 1433.242188 1844.375 1431.328125 1844.707031 1429.402344 1844.992188 C 1427.480469 1845.28125 1425.550781 1845.519531 1423.617188 1845.710938 C 1421.679688 1845.902344 1419.742188 1846.046875 1417.800781 1846.144531 C 1415.855469 1846.242188 1413.914062 1846.292969 1411.96875 1846.292969 Z M 759.257812 1607.9375 L 759.257812 1727.703125 C 759.261719 1729.070312 759.296875 1730.4375 759.363281 1731.804688 C 759.433594 1733.171875 759.535156 1734.535156 759.671875 1735.894531 C 759.808594 1737.257812 759.976562 1738.613281 760.179688 1739.96875 C 760.378906 1741.320312 760.617188 1742.667969 760.886719 1744.007812 C 761.152344 1745.351562 761.457031 1746.683594 761.789062 1748.011719 C 762.125 1749.339844 762.492188 1750.65625 762.890625 1751.964844 C 763.289062 1753.273438 763.71875 1754.574219 764.183594 1755.859375 C 764.644531 1757.148438 765.140625 1758.425781 765.664062 1759.6875 C 766.191406 1760.953125 766.746094 1762.203125 767.332031 1763.4375 C 767.917969 1764.675781 768.535156 1765.894531 769.183594 1767.101562 C 769.832031 1768.308594 770.507812 1769.496094 771.210938 1770.671875 C 771.917969 1771.84375 772.652344 1773 773.414062 1774.136719 C 774.175781 1775.273438 774.964844 1776.390625 775.78125 1777.492188 C 776.597656 1778.589844 777.441406 1779.667969 778.3125 1780.726562 C 779.183594 1781.78125 780.078125 1782.816406 781 1783.832031 C 781.921875 1784.84375 782.867188 1785.835938 783.835938 1786.804688 C 784.804688 1787.769531 785.796875 1788.714844 786.8125 1789.632812 C 787.828125 1790.550781 788.867188 1791.445312 789.925781 1792.3125 C 790.988281 1793.179688 792.066406 1794.023438 793.167969 1794.835938 C 794.269531 1795.652344 795.390625 1796.441406 796.53125 1797.199219 C 797.671875 1797.960938 798.828125 1798.691406 800.003906 1799.398438 C 801.179688 1800.101562 802.375 1800.773438 803.582031 1801.421875 C 804.792969 1802.066406 806.015625 1802.679688 807.253906 1803.265625 C 808.496094 1803.851562 809.746094 1804.40625 811.015625 1804.933594 C 812.28125 1805.457031 813.558594 1805.949219 814.851562 1806.410156 C 816.140625 1806.871094 817.441406 1807.300781 818.753906 1807.699219 C 820.066406 1808.097656 821.386719 1808.464844 822.71875 1808.796875 C 824.046875 1809.132812 825.382812 1809.433594 826.730469 1809.699219 C 828.074219 1809.96875 829.421875 1810.203125 830.78125 1810.40625 C 832.136719 1810.605469 833.496094 1810.777344 834.859375 1810.910156 C 836.226562 1811.046875 837.59375 1811.148438 838.960938 1811.21875 C 840.332031 1811.285156 841.703125 1811.320312 843.074219 1811.324219 L 1411.96875 1811.324219 C 1413.339844 1811.320312 1414.707031 1811.285156 1416.078125 1811.21875 C 1417.449219 1811.148438 1418.816406 1811.046875 1420.179688 1810.910156 C 1421.542969 1810.777344 1422.902344 1810.605469 1424.261719 1810.40625 C 1425.617188 1810.203125 1426.96875 1809.96875 1428.3125 1809.699219 C 1429.65625 1809.433594 1430.992188 1809.132812 1432.324219 1808.796875 C 1433.652344 1808.464844 1434.972656 1808.097656 1436.285156 1807.699219 C 1437.597656 1807.300781 1438.898438 1806.871094 1440.191406 1806.410156 C 1441.480469 1805.949219 1442.761719 1805.457031 1444.027344 1804.929688 C 1445.292969 1804.40625 1446.546875 1803.851562 1447.785156 1803.265625 C 1449.023438 1802.679688 1450.25 1802.066406 1451.457031 1801.421875 C 1452.667969 1800.773438 1453.859375 1800.101562 1455.035156 1799.398438 C 1456.210938 1798.691406 1457.371094 1797.960938 1458.507812 1797.199219 C 1459.648438 1796.441406 1460.769531 1795.652344 1461.871094 1794.835938 C 1462.972656 1794.023438 1464.054688 1793.179688 1465.113281 1792.3125 C 1466.171875 1791.445312 1467.210938 1790.550781 1468.226562 1789.632812 C 1469.242188 1788.714844 1470.234375 1787.769531 1471.207031 1786.804688 C 1472.175781 1785.835938 1473.121094 1784.84375 1474.039062 1783.832031 C 1474.960938 1782.816406 1475.855469 1781.78125 1476.726562 1780.726562 C 1477.597656 1779.667969 1478.441406 1778.589844 1479.257812 1777.492188 C 1480.074219 1776.390625 1480.863281 1775.273438 1481.628906 1774.136719 C 1482.390625 1773 1483.125 1771.84375 1483.828125 1770.671875 C 1484.535156 1769.496094 1485.210938 1768.308594 1485.855469 1767.101562 C 1486.503906 1765.894531 1487.121094 1764.675781 1487.707031 1763.4375 C 1488.292969 1762.203125 1488.851562 1760.953125 1489.375 1759.6875 C 1489.902344 1758.425781 1490.394531 1757.148438 1490.859375 1755.859375 C 1491.320312 1754.574219 1491.753906 1753.273438 1492.152344 1751.964844 C 1492.550781 1750.65625 1492.917969 1749.339844 1493.25 1748.011719 C 1493.585938 1746.683594 1493.886719 1745.351562 1494.15625 1744.007812 C 1494.425781 1742.667969 1494.660156 1741.320312 1494.863281 1739.96875 C 1495.066406 1738.613281 1495.234375 1737.257812 1495.371094 1735.894531 C 1495.503906 1734.535156 1495.605469 1733.171875 1495.675781 1731.804688 C 1495.746094 1730.4375 1495.78125 1729.070312 1495.78125 1727.703125 L 1495.78125 1607.9375 Z M 759.257812 1607.9375 " fill-opacity="1" fill-rule="nonzero"/></g><path fill="#000000" d="M 1127.523438 1785.828125 C 1126.273438 1785.828125 1125.023438 1785.796875 1123.773438 1785.738281 C 1122.527344 1785.675781 1121.28125 1785.585938 1120.035156 1785.460938 C 1118.792969 1785.339844 1117.550781 1785.1875 1116.316406 1785.003906 C 1115.078125 1784.820312 1113.847656 1784.609375 1112.621094 1784.363281 C 1111.394531 1784.121094 1110.175781 1783.847656 1108.964844 1783.546875 C 1107.75 1783.242188 1106.546875 1782.910156 1105.351562 1782.546875 C 1104.15625 1782.1875 1102.96875 1781.792969 1101.792969 1781.375 C 1100.613281 1780.953125 1099.449219 1780.503906 1098.292969 1780.027344 C 1097.140625 1779.550781 1095.996094 1779.046875 1094.867188 1778.511719 C 1093.738281 1777.980469 1092.621094 1777.417969 1091.519531 1776.832031 C 1090.417969 1776.242188 1089.328125 1775.628906 1088.257812 1774.988281 C 1087.183594 1774.347656 1086.128906 1773.679688 1085.089844 1772.988281 C 1084.050781 1772.292969 1083.027344 1771.574219 1082.023438 1770.832031 C 1081.019531 1770.089844 1080.035156 1769.324219 1079.070312 1768.53125 C 1078.105469 1767.742188 1077.15625 1766.925781 1076.230469 1766.089844 C 1075.304688 1765.253906 1074.398438 1764.394531 1073.515625 1763.511719 C 1072.632812 1762.628906 1071.769531 1761.726562 1070.929688 1760.800781 C 1070.09375 1759.878906 1069.277344 1758.933594 1068.484375 1757.96875 C 1067.691406 1757.007812 1066.921875 1756.023438 1066.175781 1755.023438 C 1065.433594 1754.019531 1064.710938 1753 1064.019531 1751.964844 C 1063.324219 1750.925781 1062.65625 1749.875 1062.011719 1748.804688 C 1061.371094 1747.734375 1060.753906 1746.648438 1060.164062 1745.550781 C 1059.574219 1744.449219 1059.015625 1743.335938 1058.480469 1742.210938 C 1057.945312 1741.082031 1057.4375 1739.941406 1056.960938 1738.789062 C 1056.480469 1737.636719 1056.03125 1736.476562 1055.609375 1735.300781 C 1055.191406 1734.128906 1054.796875 1732.941406 1054.433594 1731.75 C 1054.074219 1730.554688 1053.738281 1729.355469 1053.4375 1728.144531 C 1053.132812 1726.933594 1052.859375 1725.71875 1052.613281 1724.496094 C 1052.371094 1723.273438 1052.15625 1722.042969 1051.972656 1720.8125 C 1051.789062 1719.578125 1051.636719 1718.339844 1051.515625 1717.101562 C 1051.390625 1715.859375 1051.300781 1714.613281 1051.238281 1713.371094 C 1051.175781 1712.125 1051.148438 1710.878906 1051.148438 1709.628906 C 1051.148438 1708.382812 1051.175781 1707.136719 1051.238281 1705.890625 C 1051.300781 1704.648438 1051.390625 1703.402344 1051.515625 1702.164062 C 1051.636719 1700.921875 1051.789062 1699.683594 1051.972656 1698.449219 C 1052.15625 1697.214844 1052.371094 1695.988281 1052.613281 1694.765625 C 1052.859375 1693.542969 1053.132812 1692.324219 1053.4375 1691.117188 C 1053.738281 1689.90625 1054.074219 1688.707031 1054.4375 1687.511719 C 1054.796875 1686.320312 1055.191406 1685.132812 1055.613281 1683.960938 C 1056.03125 1682.785156 1056.480469 1681.625 1056.960938 1680.472656 C 1057.4375 1679.320312 1057.945312 1678.179688 1058.480469 1677.050781 C 1059.015625 1675.925781 1059.578125 1674.8125 1060.164062 1673.710938 C 1060.753906 1672.613281 1061.371094 1671.527344 1062.011719 1670.457031 C 1062.65625 1669.386719 1063.324219 1668.335938 1064.019531 1667.296875 C 1064.714844 1666.261719 1065.433594 1665.242188 1066.175781 1664.238281 C 1066.921875 1663.238281 1067.691406 1662.253906 1068.484375 1661.292969 C 1069.277344 1660.328125 1070.09375 1659.382812 1070.933594 1658.460938 C 1071.773438 1657.535156 1072.632812 1656.632812 1073.515625 1655.75 C 1074.402344 1654.867188 1075.304688 1654.007812 1076.230469 1653.171875 C 1077.15625 1652.335938 1078.105469 1651.519531 1079.070312 1650.730469 C 1080.035156 1649.9375 1081.023438 1649.171875 1082.027344 1648.429688 C 1083.03125 1647.683594 1084.050781 1646.96875 1085.089844 1646.273438 C 1086.128906 1645.582031 1087.1875 1644.914062 1088.257812 1644.273438 C 1089.328125 1643.632812 1090.417969 1643.019531 1091.519531 1642.429688 C 1092.621094 1641.84375 1093.738281 1641.28125 1094.867188 1640.75 C 1095.996094 1640.214844 1097.140625 1639.710938 1098.296875 1639.234375 C 1099.449219 1638.753906 1100.617188 1638.308594 1101.792969 1637.886719 C 1102.96875 1637.46875 1104.15625 1637.074219 1105.351562 1636.714844 C 1106.546875 1636.351562 1107.753906 1636.019531 1108.964844 1635.714844 C 1110.175781 1635.414062 1111.398438 1635.140625 1112.621094 1634.898438 C 1113.847656 1634.652344 1115.078125 1634.441406 1116.316406 1634.257812 C 1117.550781 1634.074219 1118.792969 1633.921875 1120.035156 1633.800781 C 1121.28125 1633.675781 1122.527344 1633.585938 1123.777344 1633.523438 C 1125.023438 1633.464844 1126.273438 1633.433594 1127.523438 1633.433594 C 1128.773438 1633.433594 1130.023438 1633.464844 1131.269531 1633.523438 C 1132.519531 1633.585938 1133.765625 1633.675781 1135.007812 1633.800781 C 1136.253906 1633.921875 1137.492188 1634.074219 1138.730469 1634.257812 C 1139.964844 1634.441406 1141.199219 1634.652344 1142.421875 1634.898438 C 1143.648438 1635.140625 1144.867188 1635.414062 1146.082031 1635.714844 C 1147.292969 1636.019531 1148.496094 1636.351562 1149.695312 1636.714844 C 1150.890625 1637.074219 1152.078125 1637.46875 1153.253906 1637.886719 C 1154.429688 1638.308594 1155.597656 1638.753906 1156.75 1639.234375 C 1157.90625 1639.710938 1159.046875 1640.214844 1160.179688 1640.75 C 1161.308594 1641.28125 1162.425781 1641.84375 1163.527344 1642.429688 C 1164.628906 1643.019531 1165.714844 1643.632812 1166.789062 1644.273438 C 1167.859375 1644.914062 1168.917969 1645.582031 1169.957031 1646.273438 C 1170.996094 1646.96875 1172.015625 1647.683594 1173.019531 1648.429688 C 1174.023438 1649.171875 1175.007812 1649.9375 1175.976562 1650.730469 C 1176.941406 1651.519531 1177.886719 1652.335938 1178.8125 1653.171875 C 1179.742188 1654.007812 1180.644531 1654.867188 1181.527344 1655.75 C 1182.414062 1656.632812 1183.273438 1657.535156 1184.113281 1658.460938 C 1184.953125 1659.382812 1185.769531 1660.328125 1186.5625 1661.292969 C 1187.355469 1662.253906 1188.125 1663.238281 1188.867188 1664.238281 C 1189.613281 1665.242188 1190.332031 1666.261719 1191.027344 1667.296875 C 1191.722656 1668.335938 1192.390625 1669.386719 1193.03125 1670.457031 C 1193.675781 1671.527344 1194.292969 1672.613281 1194.878906 1673.710938 C 1195.46875 1674.8125 1196.03125 1675.925781 1196.566406 1677.050781 C 1197.101562 1678.179688 1197.605469 1679.320312 1198.085938 1680.472656 C 1198.5625 1681.625 1199.011719 1682.785156 1199.433594 1683.960938 C 1199.855469 1685.132812 1200.246094 1686.320312 1200.609375 1687.511719 C 1200.972656 1688.707031 1201.304688 1689.90625 1201.609375 1691.117188 C 1201.914062 1692.328125 1202.1875 1693.542969 1202.429688 1694.765625 C 1202.675781 1695.988281 1202.890625 1697.21875 1203.074219 1698.449219 C 1203.257812 1699.683594 1203.410156 1700.921875 1203.53125 1702.164062 C 1203.652344 1703.402344 1203.746094 1704.648438 1203.808594 1705.890625 C 1203.867188 1707.136719 1203.898438 1708.382812 1203.898438 1709.628906 C 1203.898438 1710.878906 1203.867188 1712.125 1203.804688 1713.367188 C 1203.742188 1714.613281 1203.648438 1715.855469 1203.523438 1717.097656 C 1203.398438 1718.335938 1203.246094 1719.574219 1203.0625 1720.808594 C 1202.875 1722.039062 1202.664062 1723.269531 1202.417969 1724.492188 C 1202.171875 1725.714844 1201.898438 1726.929688 1201.59375 1728.136719 C 1201.289062 1729.347656 1200.953125 1730.546875 1200.589844 1731.742188 C 1200.226562 1732.933594 1199.835938 1734.117188 1199.414062 1735.289062 C 1198.992188 1736.464844 1198.542969 1737.625 1198.0625 1738.777344 C 1197.582031 1739.929688 1197.078125 1741.066406 1196.542969 1742.195312 C 1196.007812 1743.320312 1195.445312 1744.433594 1194.855469 1745.535156 C 1194.265625 1746.632812 1193.648438 1747.714844 1193.007812 1748.785156 C 1192.363281 1749.855469 1191.695312 1750.90625 1191 1751.945312 C 1190.304688 1752.980469 1189.585938 1754 1188.84375 1755 C 1188.097656 1756 1187.328125 1756.984375 1186.535156 1757.949219 C 1185.742188 1758.910156 1184.925781 1759.855469 1184.085938 1760.777344 C 1183.25 1761.703125 1182.386719 1762.605469 1181.503906 1763.484375 C 1180.621094 1764.367188 1179.714844 1765.226562 1178.789062 1766.0625 C 1177.863281 1766.902344 1176.917969 1767.714844 1175.953125 1768.507812 C 1174.984375 1769.296875 1174 1770.066406 1172.996094 1770.808594 C 1171.992188 1771.550781 1170.972656 1772.269531 1169.933594 1772.960938 C 1168.894531 1773.652344 1167.839844 1774.320312 1166.769531 1774.960938 C 1165.695312 1775.605469 1164.609375 1776.21875 1163.507812 1776.804688 C 1162.40625 1777.394531 1161.289062 1777.957031 1160.160156 1778.488281 C 1159.03125 1779.023438 1157.890625 1779.527344 1156.738281 1780.007812 C 1155.582031 1780.484375 1154.417969 1780.933594 1153.242188 1781.355469 C 1152.0625 1781.773438 1150.878906 1782.167969 1149.683594 1782.527344 C 1148.488281 1782.890625 1147.285156 1783.226562 1146.070312 1783.527344 C 1144.859375 1783.832031 1143.640625 1784.105469 1142.417969 1784.351562 C 1141.191406 1784.59375 1139.960938 1784.808594 1138.722656 1784.992188 C 1137.488281 1785.175781 1136.25 1785.332031 1135.003906 1785.453125 C 1133.761719 1785.578125 1132.515625 1785.671875 1131.269531 1785.734375 C 1130.019531 1785.796875 1128.769531 1785.828125 1127.523438 1785.828125 Z M 1127.523438 1668.40625 C 1126.167969 1668.40625 1124.816406 1668.472656 1123.472656 1668.605469 C 1122.125 1668.734375 1120.789062 1668.933594 1119.460938 1669.199219 C 1118.132812 1669.460938 1116.820312 1669.789062 1115.527344 1670.179688 C 1114.230469 1670.574219 1112.960938 1671.027344 1111.707031 1671.542969 C 1110.457031 1672.0625 1109.238281 1672.636719 1108.042969 1673.273438 C 1106.847656 1673.910156 1105.691406 1674.605469 1104.566406 1675.355469 C 1103.441406 1676.105469 1102.355469 1676.90625 1101.308594 1677.765625 C 1100.261719 1678.621094 1099.261719 1679.527344 1098.304688 1680.480469 C 1097.347656 1681.4375 1096.4375 1682.433594 1095.578125 1683.476562 C 1094.722656 1684.523438 1093.917969 1685.605469 1093.164062 1686.726562 C 1092.414062 1687.851562 1091.71875 1689.007812 1091.078125 1690.199219 C 1090.441406 1691.390625 1089.863281 1692.609375 1089.347656 1693.855469 C 1088.828125 1695.101562 1088.371094 1696.371094 1087.980469 1697.664062 C 1087.585938 1698.957031 1087.257812 1700.265625 1086.996094 1701.589844 C 1086.730469 1702.914062 1086.53125 1704.246094 1086.398438 1705.589844 C 1086.265625 1706.933594 1086.199219 1708.28125 1086.199219 1709.632812 C 1086.199219 1710.980469 1086.265625 1712.328125 1086.398438 1713.671875 C 1086.53125 1715.015625 1086.730469 1716.351562 1086.996094 1717.675781 C 1087.257812 1719 1087.585938 1720.304688 1087.980469 1721.597656 C 1088.375 1722.890625 1088.828125 1724.160156 1089.347656 1725.40625 C 1089.863281 1726.65625 1090.441406 1727.875 1091.082031 1729.066406 C 1091.71875 1730.253906 1092.414062 1731.410156 1093.164062 1732.535156 C 1093.917969 1733.65625 1094.722656 1734.742188 1095.582031 1735.785156 C 1096.441406 1736.828125 1097.347656 1737.828125 1098.304688 1738.78125 C 1099.261719 1739.738281 1100.261719 1740.640625 1101.308594 1741.5 C 1102.355469 1742.355469 1103.441406 1743.160156 1104.566406 1743.910156 C 1105.691406 1744.660156 1106.851562 1745.351562 1108.042969 1745.988281 C 1109.238281 1746.625 1110.460938 1747.203125 1111.710938 1747.71875 C 1112.960938 1748.234375 1114.234375 1748.6875 1115.527344 1749.082031 C 1116.824219 1749.472656 1118.132812 1749.800781 1119.460938 1750.0625 C 1120.789062 1750.328125 1122.125 1750.527344 1123.472656 1750.65625 C 1124.820312 1750.789062 1126.167969 1750.855469 1127.523438 1750.855469 C 1128.875 1750.855469 1130.226562 1750.789062 1131.574219 1750.65625 C 1132.921875 1750.523438 1134.257812 1750.328125 1135.585938 1750.0625 C 1136.910156 1749.800781 1138.222656 1749.472656 1139.519531 1749.082031 C 1140.8125 1748.6875 1142.085938 1748.234375 1143.335938 1747.71875 C 1144.585938 1747.203125 1145.808594 1746.625 1147.003906 1745.988281 C 1148.195312 1745.351562 1149.355469 1744.660156 1150.480469 1743.910156 C 1151.605469 1743.15625 1152.691406 1742.355469 1153.738281 1741.5 C 1154.785156 1740.640625 1155.785156 1739.734375 1156.742188 1738.78125 C 1157.699219 1737.828125 1158.605469 1736.828125 1159.464844 1735.785156 C 1160.324219 1734.738281 1161.128906 1733.65625 1161.882812 1732.535156 C 1162.632812 1731.410156 1163.328125 1730.253906 1163.964844 1729.0625 C 1164.605469 1727.875 1165.183594 1726.65625 1165.699219 1725.40625 C 1166.21875 1724.160156 1166.671875 1722.890625 1167.066406 1721.597656 C 1167.457031 1720.304688 1167.785156 1718.996094 1168.050781 1717.671875 C 1168.316406 1716.347656 1168.511719 1715.015625 1168.644531 1713.671875 C 1168.777344 1712.328125 1168.84375 1710.980469 1168.84375 1709.628906 C 1168.84375 1708.28125 1168.777344 1706.933594 1168.640625 1705.589844 C 1168.507812 1704.246094 1168.308594 1702.914062 1168.042969 1701.589844 C 1167.777344 1700.265625 1167.449219 1698.960938 1167.054688 1697.667969 C 1166.664062 1696.375 1166.207031 1695.109375 1165.6875 1693.859375 C 1165.167969 1692.613281 1164.589844 1691.394531 1163.953125 1690.203125 C 1163.316406 1689.015625 1162.621094 1687.859375 1161.867188 1686.738281 C 1161.117188 1685.613281 1160.308594 1684.53125 1159.453125 1683.488281 C 1158.59375 1682.445312 1157.6875 1681.445312 1156.730469 1680.492188 C 1155.773438 1679.535156 1154.769531 1678.632812 1153.726562 1677.773438 C 1152.679688 1676.917969 1151.59375 1676.117188 1150.46875 1675.367188 C 1149.34375 1674.613281 1148.1875 1673.921875 1146.992188 1673.285156 C 1145.800781 1672.648438 1144.578125 1672.070312 1143.328125 1671.554688 C 1142.078125 1671.035156 1140.808594 1670.582031 1139.511719 1670.1875 C 1138.21875 1669.796875 1136.90625 1669.46875 1135.582031 1669.203125 C 1134.253906 1668.941406 1132.917969 1668.742188 1131.570312 1668.605469 C 1130.222656 1668.472656 1128.875 1668.40625 1127.523438 1668.40625 Z M 1127.523438 1668.40625 " fill-opacity="1" fill-rule="nonzero"/><path fill="#000000" d="M 1186.371094 530.050781 L 1068.671875 530.050781 C 1068.097656 530.050781 1067.527344 530.019531 1066.953125 529.964844 C 1066.382812 529.910156 1065.816406 529.824219 1065.253906 529.714844 C 1064.691406 529.601562 1064.132812 529.460938 1063.585938 529.296875 C 1063.035156 529.128906 1062.496094 528.9375 1061.964844 528.71875 C 1061.433594 528.5 1060.917969 528.253906 1060.410156 527.984375 C 1059.902344 527.714844 1059.414062 527.421875 1058.933594 527.101562 C 1058.457031 526.785156 1057.996094 526.445312 1057.554688 526.082031 C 1057.109375 525.71875 1056.683594 525.332031 1056.277344 524.929688 C 1055.875 524.523438 1055.488281 524.097656 1055.125 523.65625 C 1054.761719 523.214844 1054.417969 522.753906 1054.097656 522.277344 C 1053.78125 521.800781 1053.484375 521.3125 1053.214844 520.804688 C 1052.945312 520.300781 1052.699219 519.785156 1052.480469 519.253906 C 1052.261719 518.726562 1052.066406 518.1875 1051.898438 517.640625 C 1051.734375 517.089844 1051.59375 516.535156 1051.480469 515.976562 C 1051.371094 515.414062 1051.285156 514.847656 1051.230469 514.277344 C 1051.171875 513.707031 1051.144531 513.136719 1051.144531 512.5625 C 1051.144531 511.992188 1051.171875 511.417969 1051.230469 510.847656 C 1051.285156 510.28125 1051.371094 509.714844 1051.480469 509.152344 C 1051.59375 508.589844 1051.734375 508.035156 1051.898438 507.488281 C 1052.066406 506.9375 1052.261719 506.402344 1052.480469 505.871094 C 1052.699219 505.34375 1052.945312 504.824219 1053.214844 504.320312 C 1053.484375 503.816406 1053.78125 503.324219 1054.097656 502.847656 C 1054.417969 502.371094 1054.761719 501.914062 1055.125 501.46875 C 1055.488281 501.027344 1055.875 500.605469 1056.277344 500.199219 C 1056.683594 499.792969 1057.109375 499.410156 1057.554688 499.046875 C 1057.996094 498.683594 1058.457031 498.34375 1058.933594 498.023438 C 1059.414062 497.707031 1059.902344 497.410156 1060.410156 497.140625 C 1060.917969 496.871094 1061.433594 496.628906 1061.964844 496.40625 C 1062.496094 496.1875 1063.035156 495.996094 1063.585938 495.828125 C 1064.132812 495.664062 1064.691406 495.523438 1065.253906 495.414062 C 1065.816406 495.300781 1066.382812 495.21875 1066.953125 495.160156 C 1067.527344 495.105469 1068.097656 495.078125 1068.671875 495.078125 L 1186.371094 495.078125 C 1186.945312 495.078125 1187.519531 495.105469 1188.089844 495.160156 C 1188.660156 495.21875 1189.230469 495.300781 1189.792969 495.414062 C 1190.355469 495.523438 1190.910156 495.664062 1191.460938 495.828125 C 1192.007812 495.996094 1192.550781 496.1875 1193.078125 496.40625 C 1193.609375 496.628906 1194.128906 496.871094 1194.632812 497.140625 C 1195.140625 497.410156 1195.632812 497.707031 1196.109375 498.023438 C 1196.585938 498.34375 1197.046875 498.683594 1197.492188 499.046875 C 1197.933594 499.410156 1198.359375 499.792969 1198.765625 500.199219 C 1199.171875 500.605469 1199.558594 501.027344 1199.921875 501.46875 C 1200.285156 501.914062 1200.625 502.371094 1200.945312 502.847656 C 1201.265625 503.324219 1201.558594 503.816406 1201.828125 504.320312 C 1202.101562 504.824219 1202.34375 505.34375 1202.566406 505.871094 C 1202.785156 506.402344 1202.976562 506.9375 1203.144531 507.488281 C 1203.3125 508.035156 1203.449219 508.589844 1203.5625 509.152344 C 1203.675781 509.714844 1203.757812 510.28125 1203.816406 510.847656 C 1203.871094 511.417969 1203.898438 511.992188 1203.898438 512.5625 C 1203.898438 513.136719 1203.871094 513.707031 1203.816406 514.277344 C 1203.757812 514.847656 1203.675781 515.414062 1203.5625 515.976562 C 1203.449219 516.535156 1203.3125 517.089844 1203.144531 517.640625 C 1202.976562 518.1875 1202.785156 518.726562 1202.566406 519.253906 C 1202.34375 519.785156 1202.101562 520.300781 1201.828125 520.804688 C 1201.558594 521.3125 1201.265625 521.800781 1200.945312 522.277344 C 1200.625 522.753906 1200.285156 523.214844 1199.921875 523.65625 C 1199.558594 524.097656 1199.171875 524.523438 1198.765625 524.929688 C 1198.359375 525.332031 1197.933594 525.71875 1197.492188 526.082031 C 1197.046875 526.445312 1196.585938 526.785156 1196.109375 527.101562 C 1195.632812 527.421875 1195.140625 527.714844 1194.632812 527.984375 C 1194.128906 528.253906 1193.609375 528.5 1193.078125 528.71875 C 1192.550781 528.9375 1192.007812 529.128906 1191.460938 529.296875 C 1190.910156 529.460938 1190.355469 529.601562 1189.792969 529.714844 C 1189.230469 529.824219 1188.660156 529.910156 1188.089844 529.964844 C 1187.519531 530.019531 1186.945312 530.050781 1186.371094 530.050781 Z M 1186.371094 530.050781 " fill-opacity="1" fill-rule="nonzero"/></svg>